<?xml version="1.0" encoding="UTF-8" standalone="no"?>
<svg
   xmlns:dc="http://purl.org/dc/elements/1.1/"
   xmlns:cc="http://creativecommons.org/ns#"
   xmlns:rdf="http://www.w3.org/1999/02/22-rdf-syntax-ns#"
   xmlns:svg="http://www.w3.org/2000/svg"
   xmlns="http://www.w3.org/2000/svg"
   xmlns:sodipodi="http://sodipodi.sourceforge.net/DTD/sodipodi-0.dtd"
   xmlns:inkscape="http://www.inkscape.org/namespaces/inkscape"
   height="1000"
   width="1000"
   version="1.1"
   id="svg2"
   sodipodi:docname="promoter_left.svg"
   inkscape:version="0.92.2 2405546, 2018-03-11">
  <metadata
     id="metadata8">
    <rdf:RDF>
      <cc:Work
         rdf:about="">
        <dc:format>image/svg+xml</dc:format>
        <dc:type
           rdf:resource="http://purl.org/dc/dcmitype/StillImage" />
        <dc:title />
      </cc:Work>
    </rdf:RDF>
  </metadata>
  <defs
     id="defs6" />
  <sodipodi:namedview
     pagecolor="#ffffff"
     bordercolor="#666666"
     borderopacity="1"
     objecttolerance="10"
     gridtolerance="10"
     guidetolerance="10"
     inkscape:pageopacity="0"
     inkscape:pageshadow="2"
     inkscape:window-width="1366"
     inkscape:window-height="699"
     id="namedview4"
     showgrid="false"
     inkscape:zoom="0.489"
     inkscape:cx="254.60123"
     inkscape:cy="500"
     inkscape:window-x="0"
     inkscape:window-y="0"
     inkscape:window-maximized="1"
     inkscape:current-layer="svg2" />
  <path
     style="color:#000000;font-style:normal;font-variant:normal;font-weight:normal;font-stretch:normal;font-size:medium;line-height:normal;font-family:sans-serif;font-variant-ligatures:normal;font-variant-position:normal;font-variant-caps:normal;font-variant-numeric:normal;font-variant-alternates:normal;font-feature-settings:normal;text-indent:0;text-align:start;text-decoration:none;text-decoration-line:none;text-decoration-style:solid;text-decoration-color:#000000;letter-spacing:normal;word-spacing:normal;text-transform:none;writing-mode:lr-tb;direction:ltr;text-orientation:mixed;dominant-baseline:auto;baseline-shift:baseline;text-anchor:start;white-space:normal;shape-padding:0;clip-rule:nonzero;display:inline;overflow:visible;visibility:visible;opacity:1;isolation:auto;mix-blend-mode:normal;color-interpolation:sRGB;color-interpolation-filters:linearRGB;solid-color:#000000;solid-opacity:1;vector-effect:none;fill:#000000;fill-opacity:1;fill-rule:nonzero;stroke:none;stroke-width:50;stroke-linecap:butt;stroke-linejoin:round;stroke-miterlimit:4;stroke-dasharray:none;stroke-dashoffset:0;stroke-opacity:1;color-rendering:auto;image-rendering:auto;shape-rendering:auto;text-rendering:auto;enable-background:accumulate"
     d="m 300.80078,125.26953 a 25.0025,25.0025 0 0 0 -18.47851,7.05274 l -100,100 a 25.0025,25.0025 0 0 0 -0.15625,0.17187 25.0025,25.0025 0 0 0 -0.63282,0.70117 25.0025,25.0025 0 0 0 -1.01953,1.16016 25.0025,25.0025 0 0 0 -0.5664,0.76758 25.0025,25.0025 0 0 0 -0.0293,0.041 25.0025,25.0025 0 0 0 -0.875,1.22461 25.0025,25.0025 0 0 0 -0.49609,0.83985 25.0025,25.0025 0 0 0 -0.0313,0.0508 25.0025,25.0025 0 0 0 -0.71289,1.24414 25.0025,25.0025 0 0 0 -0.002,0.002 25.0025,25.0025 0 0 0 -0.4375,0.94336 25.0025,25.0025 0 0 0 -0.0254,0.0527 25.0025,25.0025 0 0 0 -0.57227,1.28125 25.0025,25.0025 0 0 0 -0.008,0.0215 25.0025,25.0025 0 0 0 -0.31836,0.9082 25.0025,25.0025 0 0 0 -0.47656,1.4375 25.0025,25.0025 0 0 0 -0.24414,1.01563 25.0025,25.0025 0 0 0 -0.32031,1.43164 25.0025,25.0025 0 0 0 -0.13086,0.95898 25.0025,25.0025 0 0 0 -0.1836,1.52149 25.0025,25.0025 0 0 0 -0.0351,1.01953 25.0025,25.0025 0 0 0 -0.0312,1.45508 25.0025,25.0025 0 0 0 0.0723,1.12695 25.0025,25.0025 0 0 0 0.10938,1.36523 25.0025,25.0025 0 0 0 0.17969,1.08594 25.0025,25.0025 0 0 0 0.25,1.37695 25.0025,25.0025 0 0 0 0.29492,1.08789 25.0025,25.0025 0 0 0 0.375,1.3086 25.0025,25.0025 0 0 0 0.42578,1.11133 25.0025,25.0025 0 0 0 0.48242,1.21093 25.0025,25.0025 0 0 0 0.54102,1.08008 25.0025,25.0025 0 0 0 0.59375,1.14063 25.0025,25.0025 0 0 0 0.65429,1.0332 25.0025,25.0025 0 0 0 0.70313,1.07422 25.0025,25.0025 0 0 0 0.73828,0.9414 25.0025,25.0025 0 0 0 0.83594,1.03711 25.0025,25.0025 0 0 0 1.04883,1.125 l 100,100 a 25.0025,25.0025 0 0 0 35.35546,-35.35546 L 260.35547,275 H 875 V 625 H 0 v 50 h 900 100 V 625 H 925 V 250 a 25.0025,25.0025 0 0 0 -0.49805,-4.9668 25.0025,25.0025 0 0 0 -2.56445,-7.01953 25.0025,25.0025 0 0 0 -2.81836,-4.12109 25.0025,25.0025 0 0 0 -12.43555,-7.98242 25.0025,25.0025 0 0 0 -4.91992,-0.84766 A 25.0025,25.0025 0 0 0 900,225 H 260.35547 l 57.32226,-57.32227 a 25.0025,25.0025 0 0 0 -16.87695,-42.4082 z"
     id="path7"
     inkscape:connector-curvature="0" />
</svg>
